<?xml version="1.0" encoding="UTF-8" standalone="no"?>
<!-- Created with Inkscape (http://www.inkscape.org/) -->

<svg
   width="653.95508mm"
   height="196.16913mm"
   viewBox="0 0 653.95508 196.16913"
   version="1.1"
   id="svg1"
   inkscape:version="1.3 (1:1.3+202307231459+0e150ed6c4)"
   sodipodi:docname="logo.svg"
   xmlns:inkscape="http://www.inkscape.org/namespaces/inkscape"
   xmlns:sodipodi="http://sodipodi.sourceforge.net/DTD/sodipodi-0.dtd"
   xmlns="http://www.w3.org/2000/svg"
   xmlns:svg="http://www.w3.org/2000/svg">
  <sodipodi:namedview
     id="namedview1"
     pagecolor="#ffffff"
     bordercolor="#666666"
     borderopacity="1.0"
     inkscape:showpageshadow="2"
     inkscape:pageopacity="0.0"
     inkscape:pagecheckerboard="0"
     inkscape:deskcolor="#d1d1d1"
     inkscape:document-units="mm"
     inkscape:zoom="0.32549036"
     inkscape:cx="1255.0295"
     inkscape:cy="686.65628"
     inkscape:window-width="1872"
     inkscape:window-height="1051"
     inkscape:window-x="48"
     inkscape:window-y="0"
     inkscape:window-maximized="1"
     inkscape:current-layer="layer1" />
  <defs
     id="defs1">
    <clipPath
       clipPathUnits="userSpaceOnUse"
       id="clipPath6">
      <path
         d="M 0,1080 H 1920 V 0 H 0 Z"
         transform="matrix(1.3333333,0,0,-1.3333333,0,1440)"
         id="path6" />
    </clipPath>
    <clipPath
       clipPathUnits="userSpaceOnUse"
       id="clipPath4">
      <path
         d="m 1356.21,816.91 h 505.51 V 311.392 h -505.51 z"
         id="path4" />
    </clipPath>
    <clipPath
       clipPathUnits="userSpaceOnUse"
       id="clipPath8">
      <path
         d="M 0,1080 H 1920 V 0 H 0 Z"
         transform="translate(-1646.0244,-508.08982)"
         id="path8" />
    </clipPath>
    <clipPath
       clipPathUnits="userSpaceOnUse"
       id="clipPath3">
      <path
         d="M 0,1080 H 1920 V 0 H 0 Z"
         transform="matrix(1.3333333,0,0,-1.3333333,0,1440)"
         id="path3" />
    </clipPath>
    <clipPath
       clipPathUnits="userSpaceOnUse"
       id="clipPath1">
      <path
         d="M 33.2687,842.186 H 1887 V 286.116 H 33.2687 Z"
         id="path1" />
    </clipPath>
    <clipPath
       clipPathUnits="userSpaceOnUse"
       id="clipPath13">
      <path
         d="M 0,1080 H 1920 V 0 H 0 Z"
         transform="translate(-870.4507,-616.41652)"
         id="path13" />
    </clipPath>
  </defs>
  <g
     inkscape:label="Layer 1"
     inkscape:groupmode="layer"
     id="layer1"
     transform="translate(227.0125,33.072919)">
    <g
       opacity="0.979996"
       id="g2"
       clip-path="url(#clipPath3)"
       transform="matrix(0.26458333,0,0,0.26458333,-238.74906,-116.96842)">
      <path
         d="M 33.269,842.186 H 1887 V 286.116 H 33.269 Z"
         style="fill:#006dae;fill-opacity:1;fill-rule:nonzero;stroke:none"
         transform="matrix(1.3333333,0,0,-1.3333333,0,1440)"
         clip-path="url(#clipPath1)"
         id="path2" />
    </g>
    <g
       opacity="0.979996"
       id="g5"
       clip-path="url(#clipPath6)"
       transform="matrix(0.26458333,0,0,0.26458333,-238.74906,-116.96842)">
      <path
         d="m 1356.206,816.91 h 505.518 V 311.392 h -505.518 z"
         style="fill:#ffffff;fill-opacity:1;fill-rule:nonzero;stroke:none"
         transform="matrix(1.3333333,0,0,-1.3333333,0,1440)"
         clip-path="url(#clipPath4)"
         id="path5" />
    </g>
    <path
       id="path7"
       d="M 0,0 H 18.009 C 25.32,0 30.805,-7.921 34.258,-12.998 23.357,-14.285 11.915,-14.895 0,-14.962 Z m 0.609,49.085 v 37.644 c 39.132,0 59.444,4.604 59.444,-18.483 0,-24.712 -25.864,-19.161 -59.444,-19.161 m -152.4,25.931 c 0,49.762 66.958,90.045 149.489,90.045 82.53,0 143.463,-27.555 143.463,-90.045 0,-33.92 -17.941,-57.548 -47.596,-72.037 -1.624,1.083 -3.181,1.964 -4.333,2.505 -6.905,3.521 -18.821,7.11 -18.821,7.11 0,0 58.631,4.333 58.631,62.76 0,58.428 -61.339,59.512 -61.339,59.512 H -67.026 V -6.16 c -50.168,14.556 -84.765,45.429 -84.765,81.176 z m 316.039,9.817 c 0,72.781 -88.082,131.75 -196.679,131.75 -108.595,0 -196.677,-58.969 -196.677,-131.75 0,-64.86 69.937,-118.752 162.082,-129.652 V -86.728 H 0.067 v 41.638 c 16.453,1.828 32.227,5.01 46.987,9.411 l 27.148,-51.049 h 75.828 l -45.632,76.979 c 36.899,23.967 59.85,57.48 59.85,94.582"
       style="fill:#006dae;fill-opacity:1;fill-rule:nonzero;stroke:none"
       transform="matrix(0.35277776,0,0,-0.35277776,341.93176,84.788786)"
       clip-path="url(#clipPath8)" />
    <path
       id="path9"
       d="m -185.33681,31.992701 h 17.74049 v 68.859749 h 42.39224 v 15.0936 h -60.13273 z"
       style="fill:#ffffff;fill-opacity:1;fill-rule:nonzero;stroke:none;stroke-width:0.352778" />
    <path
       id="path10"
       d="m -50.499045,46.858263 h -44.926601 v 17.827271 h 41.240426 v 14.580658 h -41.240426 v 21.586468 h 47.000229 v 15.09325 H -112.76291 V 31.992561 h 62.263865 z"
       style="fill:#ffffff;fill-opacity:1;fill-rule:nonzero;stroke:none;stroke-width:0.352778" />
    <path
       id="path11"
       d="M -11.493181,84.221379 H 10.250276 L -0.47487322,51.186917 Z m 1.169105,-52.228747 H 9.748979 L 39.786594,115.94598 H 20.548565 L 14.946454,98.688442 h -31.265282 l -5.755216,17.257538 H -40.63086 Z"
       style="fill:#ffffff;fill-opacity:1;fill-rule:nonzero;stroke:none;stroke-width:0.352778" />
    <path
       id="path12"
       d="m 0,0 v -63.934 h 54.12 c 10.75,0 18.81,1.292 24.189,3.875 9.51,4.52 14.266,13.453 14.266,26.801 0,14.422 -4.602,24.109 -13.801,29.06 C 73.604,-1.4 65.852,0 55.514,0 Z m 103.938,35.196 c 8.861,-3.769 16.373,-9.311 22.527,-16.629 5.096,-6.029 9.129,-12.702 12.102,-20.02 2.971,-7.32 4.459,-15.661 4.459,-25.025 0,-11.301 -2.887,-22.416 -8.654,-33.339 -5.77,-10.926 -15.293,-18.647 -28.573,-23.168 11.104,-4.415 18.965,-10.683 23.594,-18.809 4.625,-8.128 6.938,-20.532 6.938,-37.214 v -15.984 c 0,-10.873 0.441,-18.244 1.328,-22.119 1.326,-6.135 4.42,-10.655 9.285,-13.561 v -5.974 H 91.432 c -1.525,5.272 -2.613,9.525 -3.265,12.755 -1.307,6.672 -2.016,13.506 -2.124,20.504 l -0.326,22.118 c -0.207,15.177 -2.857,25.293 -7.955,30.352 -5.095,5.059 -14.648,7.589 -28.648,7.589 H 0 v -93.318 H -49.145 V 41.332 H 65.967 c 16.45,-0.324 29.108,-2.37 37.971,-6.136"
       style="fill:#ffffff;fill-opacity:1;fill-rule:nonzero;stroke:none"
       transform="matrix(0.35277776,0,0,-0.35277776,68.326591,46.573534)"
       clip-path="url(#clipPath13)" />
    <path
       id="path14"
       d="m 135.48649,31.992701 h 18.59809 l 33.70121,58.53853 v -58.53853 h 16.53046 v 83.953349 h -17.7366 l -34.5627,-59.567939 v 59.567939 h -16.53046 z"
       style="fill:#ffffff;fill-opacity:1;fill-rule:nonzero;stroke:none;stroke-width:0.352778" />
  </g>
</svg>
